<svg width="374" height="377" viewBox="0 0 374 377" fill="none" xmlns="http://www.w3.org/2000/svg">
<path d="M364 188.5C364 287.158 284.679 367 187 367C89.3208 367 10 287.158 10 188.5C10 89.8417 89.3208 10 187 10C284.679 10 364 89.8417 364 188.5Z" stroke="white" stroke-opacity="0.3" stroke-width="20"/>
<mask id="path-2-inside-1_65_374" fill="white">
<path d="M187 12.7564C187 5.71124 192.719 -0.0456897 199.748 0.438123C244.686 3.53151 287.176 22.9008 319.229 55.2104C354.298 90.561 374 138.507 374 188.5C374 238.493 354.298 286.439 319.229 321.79C287.177 354.099 244.686 373.468 199.748 376.562C192.719 377.046 187 371.289 187 364.244C187 357.198 192.721 351.54 199.744 350.981C237.963 347.936 274.028 331.273 301.332 303.749C331.655 273.183 348.69 231.727 348.69 188.5C348.69 145.273 331.655 103.817 301.332 73.2507C274.028 45.727 237.963 29.0639 199.744 26.0195C192.721 25.4601 187 19.8016 187 12.7564Z"/>
</mask>
<path d="M187 12.7564C187 5.71124 192.719 -0.0456897 199.748 0.438123C244.686 3.53151 287.176 22.9008 319.229 55.2104C354.298 90.561 374 138.507 374 188.5C374 238.493 354.298 286.439 319.229 321.79C287.177 354.099 244.686 373.468 199.748 376.562C192.719 377.046 187 371.289 187 364.244C187 357.198 192.721 351.54 199.744 350.981C237.963 347.936 274.028 331.273 301.332 303.749C331.655 273.183 348.69 231.727 348.69 188.5C348.69 145.273 331.655 103.817 301.332 73.2507C274.028 45.727 237.963 29.0639 199.744 26.0195C192.721 25.4601 187 19.8016 187 12.7564Z" stroke="#B7B345" stroke-width="40" stroke-linejoin="bevel" mask="url(#path-2-inside-1_65_374)"/>
</svg>
