<svg width="300" height="300" viewBox="0 0 300 300" fill="none" xmlns="http://www.w3.org/2000/svg">
<circle cx="150" cy="150" r="140" stroke="white" stroke-opacity="0.3" stroke-width="20"/>
<mask id="path-2-inside-1_38_175" fill="white">
<path d="M150 10.151C150 4.54475 154.55 -0.0357639 160.143 0.343338C179.321 1.64313 198.103 6.61951 215.455 15.0347C235.857 24.929 253.75 39.3197 267.789 57.1249C281.828 74.93 291.648 95.6863 296.51 117.833C300.646 136.669 301.104 156.094 297.894 175.046C296.958 180.573 291.443 183.929 285.991 182.622C280.54 181.314 277.222 175.837 278.1 170.3C280.628 154.344 280.158 138.024 276.681 122.187C272.476 103.037 263.986 85.0905 251.847 69.6952C239.708 54.2999 224.236 41.8569 206.596 33.3018C192.006 26.2261 176.247 21.9622 160.141 20.699C154.552 20.2607 150 15.7572 150 10.151Z"/>
</mask>
<path d="M150 10.151C150 4.54475 154.55 -0.0357639 160.143 0.343338C179.321 1.64313 198.103 6.61951 215.455 15.0347C235.857 24.929 253.75 39.3197 267.789 57.1249C281.828 74.93 291.648 95.6863 296.51 117.833C300.646 136.669 301.104 156.094 297.894 175.046C296.958 180.573 291.443 183.929 285.991 182.622C280.54 181.314 277.222 175.837 278.1 170.3C280.628 154.344 280.158 138.024 276.681 122.187C272.476 103.037 263.986 85.0905 251.847 69.6952C239.708 54.2999 224.236 41.8569 206.596 33.3018C192.006 26.2261 176.247 21.9622 160.141 20.699C154.552 20.2607 150 15.7572 150 10.151Z" stroke="#B7B345" stroke-width="40" stroke-linejoin="bevel" mask="url(#path-2-inside-1_38_175)"/>
</svg>
