<svg width="664" height="160" viewBox="0 0 664 160" fill="none" xmlns="http://www.w3.org/2000/svg">
<circle cx="30.8574" cy="31.2858" r="25.7143" fill="#EDEFF1"/>
<circle cx="132.428" cy="30.0001" r="29.5714" fill="#FFCE51"/>
<circle cx="232.714" cy="30.0001" r="29.5714" fill="#FFCE51"/>
<circle cx="333" cy="30.0001" r="29.5714" fill="#FFCE51"/>
<circle cx="433.286" cy="30.0001" r="29.5714" fill="#FFCE51"/>
<g clip-path="url(#clip0_67_236)">
<ellipse cx="134.839" cy="34.8213" rx="6.02679" ry="8.4375" fill="#FFCE51"/>
<path d="M144.45 30.5624C141.927 24.0053 132.943 23.6517 135.113 14.1213C135.274 13.4142 134.518 12.8678 133.907 13.2374C128.074 16.6767 123.879 23.5713 127.399 32.6035C127.688 33.3428 126.82 34.0338 126.193 33.5517C123.284 31.3499 122.979 28.1838 123.236 25.9178C123.332 25.0821 122.24 24.6803 121.774 25.3713C120.681 27.0428 119.572 29.7428 119.572 33.8088C120.182 42.8088 127.784 45.5731 130.516 45.9267C134.422 46.4249 138.649 45.7017 141.686 42.9213C145.029 39.8196 146.25 34.8696 144.45 30.5624ZM129.536 38.6463C131.85 38.0838 133.04 36.4124 133.361 34.9338C133.891 32.6356 131.818 30.3856 133.216 26.7535C133.747 29.7588 138.472 31.6392 138.472 34.9178C138.6 38.9838 134.197 42.4713 129.536 38.6463Z" fill="#FF7324"/>
</g>
<g clip-path="url(#clip1_67_236)">
<ellipse cx="235.125" cy="34.8213" rx="6.02679" ry="8.4375" fill="#FFCE51"/>
<path d="M244.736 30.5624C242.213 24.0053 233.229 23.6517 235.398 14.1213C235.559 13.4142 234.804 12.8678 234.193 13.2374C228.359 16.6767 224.165 23.5713 227.684 32.6035C227.973 33.3428 227.106 34.0338 226.479 33.5517C223.57 31.3499 223.265 28.1838 223.522 25.9178C223.618 25.0821 222.525 24.6803 222.059 25.3713C220.966 27.0428 219.857 29.7428 219.857 33.8088C220.468 42.8088 228.07 45.5731 230.802 45.9267C234.707 46.4249 238.934 45.7017 241.972 42.9213C245.315 39.8196 246.536 34.8696 244.736 30.5624ZM229.822 38.6463C232.136 38.0838 233.325 36.4124 233.647 34.9338C234.177 32.6356 232.104 30.3856 233.502 26.7535C234.032 29.7588 238.757 31.6392 238.757 34.9178C238.886 38.9838 234.482 42.4713 229.822 38.6463Z" fill="#FF7324"/>
</g>
<g clip-path="url(#clip2_67_236)">
<ellipse cx="335.411" cy="34.8213" rx="6.02679" ry="8.4375" fill="#FFCE51"/>
<path d="M345.022 30.5624C342.498 24.0053 333.514 23.6517 335.684 14.1213C335.845 13.4142 335.089 12.8678 334.479 13.2374C328.645 16.6767 324.45 23.5713 327.97 32.6035C328.259 33.3428 327.391 34.0338 326.764 33.5517C323.856 31.3499 323.55 28.1838 323.807 25.9178C323.904 25.0821 322.811 24.6803 322.345 25.3713C321.252 27.0428 320.143 29.7428 320.143 33.8088C320.754 42.8088 328.356 45.5731 331.088 45.9267C334.993 46.4249 339.22 45.7017 342.257 42.9213C345.6 39.8196 346.822 34.8696 345.022 30.5624ZM330.107 38.6463C332.422 38.0838 333.611 36.4124 333.932 34.9338C334.463 32.6356 332.389 30.3856 333.788 26.7535C334.318 29.7588 339.043 31.6392 339.043 34.9178C339.172 38.9838 334.768 42.4713 330.107 38.6463Z" fill="#FF7324"/>
</g>
<g clip-path="url(#clip3_67_236)">
<ellipse cx="435.697" cy="34.8213" rx="6.02679" ry="8.4375" fill="#FFCE51"/>
<path d="M445.307 30.5624C442.784 24.0053 433.8 23.6517 435.97 14.1213C436.13 13.4142 435.375 12.8678 434.764 13.2374C428.93 16.6767 424.736 23.5713 428.255 32.6035C428.545 33.3428 427.677 34.0338 427.05 33.5517C424.141 31.3499 423.836 28.1838 424.093 25.9178C424.189 25.0821 423.097 24.6803 422.63 25.3713C421.538 27.0428 420.429 29.7428 420.429 33.8088C421.039 42.8088 428.641 45.5731 431.373 45.9267C435.279 46.4249 439.505 45.7017 442.543 42.9213C445.886 39.8196 447.107 34.8696 445.307 30.5624ZM430.393 38.6463C432.707 38.0838 433.897 36.4124 434.218 34.9338C434.748 32.6356 432.675 30.3856 434.073 26.7535C434.604 29.7588 439.329 31.6392 439.329 34.9178C439.457 38.9838 435.054 42.4713 430.393 38.6463Z" fill="#FF7324"/>
</g>
<circle cx="533.571" cy="30.0001" r="29.5714" fill="#FFCE51"/>
<g clip-path="url(#clip4_67_236)">
<ellipse cx="535.982" cy="34.8213" rx="6.02679" ry="8.4375" fill="#FFCE51"/>
<path d="M545.593 30.5624C543.07 24.0053 534.086 23.6517 536.255 14.1213C536.416 13.4142 535.661 12.8678 535.05 13.2374C529.216 16.6767 525.021 23.5713 528.541 32.6035C528.83 33.3428 527.963 34.0338 527.336 33.5517C524.427 31.3499 524.121 28.1838 524.379 25.9178C524.475 25.0821 523.382 24.6803 522.916 25.3713C521.823 27.0428 520.714 29.7428 520.714 33.8088C521.325 42.8088 528.927 45.5731 531.659 45.9267C535.564 46.4249 539.791 45.7017 542.829 42.9213C546.171 39.8196 547.393 34.8696 545.593 30.5624ZM530.679 38.6463C532.993 38.0838 534.182 36.4124 534.504 34.9338C535.034 32.6356 532.961 30.3856 534.359 26.7535C534.889 29.7588 539.614 31.6392 539.614 34.9178C539.743 38.9838 535.339 42.4713 530.679 38.6463Z" fill="#FF7324"/>
</g>
<circle cx="633.857" cy="30.0001" r="29.5714" fill="#FFCE51"/>
<g clip-path="url(#clip5_67_236)">
<ellipse cx="636.268" cy="34.8213" rx="6.02679" ry="8.4375" fill="#FFCE51"/>
<path d="M645.879 30.5624C643.355 24.0053 634.371 23.6517 636.541 14.1213C636.702 13.4142 635.946 12.8678 635.336 13.2374C629.502 16.6767 625.307 23.5713 628.827 32.6035C629.116 33.3428 628.248 34.0338 627.621 33.5517C624.712 31.3499 624.407 28.1838 624.664 25.9178C624.761 25.0821 623.668 24.6803 623.202 25.3713C622.109 27.0428 621 29.7428 621 33.8088C621.611 42.8088 629.213 45.5731 631.945 45.9267C635.85 46.4249 640.077 45.7017 643.114 42.9213C646.457 39.8196 647.679 34.8696 645.879 30.5624ZM630.964 38.6463C633.279 38.0838 634.468 36.4124 634.789 34.9338C635.32 32.6356 633.246 30.3856 634.645 26.7535C635.175 29.7588 639.9 31.6392 639.9 34.9178C640.029 38.9838 635.625 42.4713 630.964 38.6463Z" fill="#FF7324"/>
</g>
<circle cx="29.5714" cy="130.286" r="29.5714" fill="#FFCE51"/>
<g clip-path="url(#clip6_67_236)">
<ellipse cx="31.9819" cy="135.107" rx="6.02679" ry="8.4375" fill="#FFCE51"/>
<path d="M41.5929 130.848C39.0697 124.291 30.0858 123.937 32.2554 114.407C32.4161 113.7 31.6608 113.153 31.0501 113.523C25.2161 116.962 21.0215 123.857 24.5411 132.889C24.8304 133.628 23.9626 134.319 23.3358 133.837C20.4269 131.636 20.1215 128.469 20.3786 126.203C20.4751 125.368 19.3822 124.966 18.9161 125.657C17.8233 127.328 16.7144 130.028 16.7144 134.094C17.3251 143.094 24.9269 145.859 27.659 146.212C31.5644 146.711 35.7911 145.987 38.8286 143.207C42.1715 140.105 43.3929 135.155 41.5929 130.848ZM26.6786 138.932C28.9929 138.369 30.1822 136.698 30.5036 135.219C31.034 132.921 28.9608 130.671 30.359 127.039C30.8894 130.044 35.6144 131.925 35.6144 135.203C35.7429 139.269 31.3394 142.757 26.6786 138.932Z" fill="#FF7324"/>
</g>
<circle cx="129.857" cy="130.286" r="29.5714" fill="#FFCE51"/>
<g clip-path="url(#clip7_67_236)">
<ellipse cx="132.268" cy="135.107" rx="6.02679" ry="8.4375" fill="#FFCE51"/>
<path d="M141.879 130.848C139.355 124.291 130.371 123.937 132.541 114.407C132.702 113.7 131.946 113.153 131.336 113.523C125.502 116.962 121.307 123.857 124.827 132.889C125.116 133.628 124.248 134.319 123.621 133.837C120.712 131.636 120.407 128.469 120.664 126.203C120.761 125.368 119.668 124.966 119.202 125.657C118.109 127.328 117 130.028 117 134.094C117.611 143.094 125.213 145.859 127.945 146.212C131.85 146.711 136.077 145.987 139.114 143.207C142.457 140.105 143.679 135.155 141.879 130.848ZM126.964 138.932C129.279 138.369 130.468 136.698 130.789 135.219C131.32 132.921 129.246 130.671 130.645 127.039C131.175 130.044 135.9 131.925 135.9 135.203C136.029 139.269 131.625 142.757 126.964 138.932Z" fill="#FF7324"/>
</g>
<defs>
<clipPath id="clip0_67_236">
<rect width="38.5714" height="38.5714" fill="white" transform="translate(113.143 10.7144)"/>
</clipPath>
<clipPath id="clip1_67_236">
<rect width="38.5714" height="38.5714" fill="white" transform="translate(213.429 10.7144)"/>
</clipPath>
<clipPath id="clip2_67_236">
<rect width="38.5714" height="38.5714" fill="white" transform="translate(313.714 10.7144)"/>
</clipPath>
<clipPath id="clip3_67_236">
<rect width="38.5714" height="38.5714" fill="white" transform="translate(414 10.7144)"/>
</clipPath>
<clipPath id="clip4_67_236">
<rect width="38.5714" height="38.5714" fill="white" transform="translate(514.286 10.7144)"/>
</clipPath>
<clipPath id="clip5_67_236">
<rect width="38.5714" height="38.5714" fill="white" transform="translate(614.571 10.7144)"/>
</clipPath>
<clipPath id="clip6_67_236">
<rect width="38.5714" height="38.5714" fill="white" transform="translate(10.2856 111)"/>
</clipPath>
<clipPath id="clip7_67_236">
<rect width="38.5714" height="38.5714" fill="white" transform="translate(110.571 111)"/>
</clipPath>
</defs>
</svg>
